<svg fill="#235784" height="56px" width="56px" version="1.1" id="Layer_1" xmlns="http://www.w3.org/2000/svg" xmlns:xlink="http://www.w3.org/1999/xlink" viewBox="0 0 490.667 490.667" xml:space="preserve"><g id="SVGRepo_bgCarrier" stroke-width="0"></g><g id="SVGRepo_tracerCarrier" stroke-linecap="round" stroke-linejoin="round"></g><g id="SVGRepo_iconCarrier"> <g> <g> <g> <path d="M364.48,0H126.507c-27.627,0-51.84,24.32-51.84,51.947v356.16c0,24.32,18.773,45.227,42.667,49.6V480 c0,5.867,4.8,10.667,10.667,10.667c5.867,0,10.667-4.8,10.667-10.667v-21.333H352V480c0,5.867,4.8,10.667,10.667,10.667 c5.867,0,10.667-4.8,10.667-10.667v-22.293c23.893-4.267,42.667-25.173,42.667-49.6V51.947C416,24.32,391.893,0,364.48,0z M234.667,437.333h-108.16c-16,0-30.507-13.867-30.507-29.227V51.947c0-15.68,14.827-30.613,30.507-30.613h108.16V437.333z M394.667,408.107c0,15.573-14.08,29.227-30.187,29.227H256v-416h108.48c15.573,0,30.187,14.933,30.187,30.613V408.107z"></path> <path d="M202.667,256c5.867,0,10.667-4.8,10.667-10.667v-64c0-5.867-4.8-10.667-10.667-10.667c-5.867,0-10.667,4.8-10.667,10.667 v64C192,251.2,196.8,256,202.667,256z"></path> <path d="M288,170.667c-5.867,0-10.667,4.8-10.667,10.667v64c0,5.867,4.8,10.667,10.667,10.667c5.867,0,10.667-4.8,10.667-10.667 v-64C298.667,175.467,293.867,170.667,288,170.667z"></path> </g> </g> </g> </g></svg>